<svg width="317" height="53" viewBox="0 0 317 53" fill="none" xmlns="http://www.w3.org/2000/svg">
<path d="M34.7656 40.0391H24.9023V25.293H12.7441L12.793 15.4785H24.9023V0.732422H34.7656V40.0391ZM9.81445 40.0391H0V0.732422H9.81445V40.0391ZM67.334 25.4395H58.3496C57.9102 23.1445 55.8594 21.7285 53.8086 21.7285C52.6855 21.7285 51.5137 22.168 50.5859 23.0957C49.9512 23.7305 49.4629 24.5605 49.3164 25.4395H40.332C40.8203 18.3594 46.6797 12.8418 53.8574 12.8418C60.9863 12.8418 66.8945 18.3594 67.334 25.4395ZM53.8574 39.8438C46.6309 39.8438 40.7227 34.2285 40.332 27.0996H49.2676C49.6582 29.4922 51.709 30.957 53.8574 30.957C54.9805 30.957 56.1523 30.5176 57.0801 29.5898C57.7637 28.9551 58.252 28.0762 58.3984 27.0996H67.334C66.9434 34.2285 61.0352 39.8438 53.8574 39.8438ZM78.125 39.6973H69.1406V12.793H78.125V18.1152C80.4688 14.4531 84.5215 12.5977 88.5254 12.5977C89.2578 12.5977 90.0391 12.6465 90.8203 12.793L86.3281 21.0449L85.3516 20.9961C81.8848 20.9961 78.2715 22.6562 78.125 25.6348V39.6973ZM96.1914 9.0332C93.6035 9.0332 91.5527 7.12891 91.5527 4.49219C91.5527 2.00195 93.5547 0 96.0938 0H96.1914C98.6816 0 100.732 2.00195 100.732 4.49219C100.732 7.03125 98.6816 9.0332 96.1914 9.0332ZM100.732 39.9414H91.748V13.0371C92.627 14.5996 94.4336 15.4297 96.2891 15.4297C97.998 15.4297 99.7559 14.6484 100.732 13.0371V39.9414ZM132.129 39.9414H102.881L116.309 20.3125H102.881V13.0371H132.129L118.701 32.6172H132.129V39.9414ZM161.084 25.4395H152.1C151.66 23.1445 149.609 21.7285 147.559 21.7285C146.436 21.7285 145.264 22.168 144.336 23.0957C143.701 23.7305 143.213 24.5605 143.066 25.4395H134.082C134.57 18.3594 140.43 12.8418 147.607 12.8418C154.736 12.8418 160.645 18.3594 161.084 25.4395ZM147.607 39.8438C140.381 39.8438 134.473 34.2285 134.082 27.0996H143.018C143.408 29.4922 145.459 30.957 147.607 30.957C148.73 30.957 149.902 30.5176 150.83 29.5898C151.514 28.9551 152.002 28.0762 152.148 27.0996H161.084C160.693 34.2285 154.785 39.8438 147.607 39.8438ZM171.826 39.7949H162.842V12.793H171.826V18.9453C174.072 14.7461 177.734 12.6953 181.299 12.6953C186.377 12.6953 191.26 16.9922 191.26 25.4395V39.6484H182.275V30.0293L182.324 25.3906C182.324 22.4121 179.932 20.5566 177.441 20.5566C174.854 20.5566 172.168 22.5586 171.826 27.2949V39.7949ZM230.908 10.5957H219.141V0.732422H230.908V10.5957ZM216.943 40.0391H207.129V10.5957H193.164V0.732422H216.943V40.0391ZM239.551 39.6973H230.566V12.793H239.551V18.1152C241.895 14.4531 245.947 12.5977 249.951 12.5977C250.684 12.5977 251.465 12.6465 252.246 12.793L247.754 21.0449L246.777 20.9961C243.311 20.9961 239.697 22.6562 239.551 25.6348V39.6973ZM257.617 9.0332C255.029 9.0332 252.979 7.12891 252.979 4.49219C252.979 2.00195 254.98 0 257.52 0H257.617C260.107 0 262.158 2.00195 262.158 4.49219C262.158 7.03125 260.107 9.0332 257.617 9.0332ZM262.158 39.9414H253.174V13.0371C254.053 14.5996 255.859 15.4297 257.715 15.4297C259.424 15.4297 261.182 14.6484 262.158 13.0371V39.9414ZM273.389 52.0996H264.453V12.793H279.15C287.646 12.793 291.943 19.3848 291.943 26.0742C291.943 32.8613 287.5 39.6973 278.564 39.6973H275.244V32.373H278.857C281.982 32.373 283.496 29.248 283.496 26.123C283.496 23.0469 282.031 20.0195 279.15 20.0195H273.389V52.0996ZM302.979 39.9902C299.854 39.9902 296.777 39.502 294.531 38.916L296.289 32.2266C298.779 32.8613 300.83 33.1543 302.441 33.1543C305.908 33.1543 307.568 32.0312 307.568 30.957C307.568 30.1758 306.592 29.4434 304.688 29.2969C297.168 28.7109 293.945 25 293.945 21.2402C293.945 18.2617 295.996 15.2344 299.609 13.7207C301.709 12.8906 303.955 12.5488 306.201 12.5488C309.229 12.5488 312.305 13.1348 315.234 13.623L314.014 20.3613C312.744 20.1172 309.131 19.3848 306.299 19.3848C304.297 19.3848 302.686 19.7266 302.393 20.8496V21.0449C302.393 24.2676 316.016 21.0449 316.016 30.9082V31.0059C315.967 37.9883 309.375 39.9902 302.979 39.9902Z" fill="white"/>
</svg>
