<svg id="Layer_1" data-name="Layer 1" xmlns="http://www.w3.org/2000/svg" viewBox="0 0 1301.08 684.55"><defs><style>.cls-1{fill:none;stroke:#000;stroke-dasharray:9 9;}</style></defs><path class="cls-1" d="M.27,614.94c80.74,52.15,284.19,125.16,452.07,0S766.6,263.09,818.8,165.4c9.05-18.27,42.5-47.93,103.89-20.47,58,41.72,92.74,88.68,102.83,106.94,27.85,42.47,98.77,101.93,159.74,0,61-107.73,88.75-191.43,95-219.82"/><path d="M1292,.19c-2.43-1-5.4,2.09-6.84,6.69l-3,9.72a2.87,2.87,0,0,1-1.81,2.24L1260,28.62a2.39,2.39,0,0,0-1.33,1.54l-.87,2.8a.8.8,0,0,0,.84,1.12l18.51-1.65-2.63,12.76-8.26,1.45c-.62.1-1,.53-1.26,1.33l-.33,1a1.1,1.1,0,0,0,.57,1.42l19.49,8.21c.54.23,1,0,1.2-.67l.32-1A2,2,0,0,0,1286,55l-5.54-7.27,5-11.74,13.29,15a.69.69,0,0,0,1.27-.23L1301,48a3,3,0,0,0-.16-2.17l-10.18-22.62a3.47,3.47,0,0,1-.13-3.06l3-9.71C1295,5.81,1294.38,1.23,1292,.19Z"/></svg>